<svg xmlns="http://www.w3.org/2000/svg" viewBox="0 0 512 512" role="img" aria-label="SubSentry cute icon">
  <defs>
    <linearGradient id="bg" x1="96" y1="64" x2="420" y2="448" gradientUnits="userSpaceOnUse">
      <stop offset="0" stop-color="#fff4fb"/>
      <stop offset="0.45" stop-color="#ffd2e6"/>
      <stop offset="1" stop-color="#ff8fbd"/>
    </linearGradient>
    <linearGradient id="shield" x1="178" y1="182" x2="336" y2="382" gradientUnits="userSpaceOnUse">
      <stop offset="0" stop-color="#ffffff"/>
      <stop offset="1" stop-color="#ffe9f3"/>
    </linearGradient>
    <filter id="softShadow" x="-20%" y="-20%" width="140%" height="150%">
      <feDropShadow dx="0" dy="16" stdDeviation="18" flood-color="#c23a7a" flood-opacity="0.22"/>
    </filter>
    <filter id="bowShadow" x="-20%" y="-20%" width="140%" height="140%">
      <feDropShadow dx="0" dy="7" stdDeviation="7" flood-color="#af1f63" flood-opacity="0.22"/>
    </filter>
  </defs>

  <rect width="512" height="512" rx="116" fill="url(#bg)"/>
  <circle cx="122" cy="138" r="28" fill="#fff" opacity="0.78"/>
  <circle cx="408" cy="104" r="17" fill="#fff" opacity="0.72"/>
  <circle cx="424" cy="390" r="32" fill="#fff0f8" opacity="0.75"/>
  <path d="M92 353c20-7 31-18 37-39 6 21 17 32 38 39-21 6-32 18-38 39-6-21-17-33-37-39Z" fill="#fff" opacity="0.9"/>
  <path d="M363 154c14-5 22-13 26-28 5 15 12 23 27 28-15 5-22 13-27 28-4-15-12-23-26-28Z" fill="#fff" opacity="0.9"/>

  <g filter="url(#softShadow)">
    <path d="M135 213c0-58 42-104 98-104h46c57 0 99 46 99 104v41c0 84-49 138-122 166-73-28-121-82-121-166v-41Z" fill="#ffacd0"/>
    <path d="M172 226c0-48 35-86 83-86h3c48 0 83 38 83 86v35c0 60-33 99-85 122-52-23-84-62-84-122v-35Z" fill="url(#shield)"/>

    <path d="M184 186 159 143c-6-11 5-24 17-18l49 25-41 36Z" fill="#fffdfd"/>
    <path d="M328 186 353 143c6-11-5-24-17-18l-49 25 41 36Z" fill="#fffdfd"/>
    <path d="M170 241c0-46 39-83 86-83s86 37 86 83c0 51-33 88-86 88s-86-37-86-88Z" fill="#fffdfd"/>

    <ellipse cx="225" cy="239" rx="9" ry="12" fill="#49323d"/>
    <ellipse cx="287" cy="239" rx="9" ry="12" fill="#49323d"/>
    <path d="M256 250c8 0 14 5 14 10s-6 10-14 10-14-5-14-10 6-10 14-10Z" fill="#ffc1d9"/>
    <path d="M238 280c9 9 27 9 36 0" fill="none" stroke="#49323d" stroke-width="8" stroke-linecap="round"/>
    <path d="M196 262h-33M198 280h-32M316 262h33M314 280h32" stroke="#d68aaa" stroke-width="7" stroke-linecap="round"/>

    <g filter="url(#bowShadow)">
      <path d="M300 147c-26-22-59-16-66 11 19 10 44 8 66-11Z" fill="#ff5fa2"/>
      <path d="M363 151c-18-29-51-34-68-11 13 18 36 25 68 11Z" fill="#ff5fa2"/>
      <circle cx="296" cy="151" r="18" fill="#ff3f91"/>
      <circle cx="291" cy="146" r="6" fill="#ffd4e7"/>
    </g>

    <path d="M210 355h92c17 0 31 14 31 31v10c-22 11-48 20-77 31-29-11-55-20-77-31v-10c0-17 14-31 31-31Z" fill="#ff77b0"/>
    <path d="M232 382c11 11 37 11 48 0" fill="none" stroke="#fff" stroke-width="16" stroke-linecap="round"/>
  </g>

  <path d="M95 111c10-4 15-10 18-21 3 11 8 17 19 21-11 3-16 9-19 21-3-12-8-18-18-21Z" fill="#ff5fa2"/>
  <path d="M395 315c11-4 18-11 21-24 4 13 11 20 24 24-13 4-20 11-24 24-3-13-10-20-21-24Z" fill="#ff5fa2"/>
</svg>
